<?xml version="1.0" standalone="no"?><!DOCTYPE svg PUBLIC "-//W3C//DTD SVG 1.1//EN" "http://www.w3.org/Graphics/SVG/1.1/DTD/svg11.dtd"><svg t="1689669423766" class="icon" viewBox="0 0 1024 1024" version="1.1" xmlns="http://www.w3.org/2000/svg" p-id="15396" xmlns:xlink="http://www.w3.org/1999/xlink" width="16" height="16"><path d="M512 341.333333c-93.866667 0-170.666667 76.8-170.666667 170.666667s76.8 170.666667 170.666667 170.666667 170.666667-76.8 170.666667-170.666667-76.8-170.666667-170.666667-170.666667z m0 256c-46.933333 0-85.333333-38.4-85.333333-85.333333s38.4-85.333333 85.333333-85.333333 85.333333 38.4 85.333333 85.333333-38.4 85.333333-85.333333 85.333333z" fill="#e6e6e6" p-id="15397"></path><path d="M819.2 396.8H789.333333l21.333334-21.333333c29.866667-29.866667 29.866667-78.933333 0-108.8L757.333333 213.333333c-29.866667-29.866667-78.933333-29.866667-108.8 0l-21.333333 21.333334V204.8c0-42.666667-34.133333-76.8-76.8-76.8h-76.8c-42.666667 0-76.8 34.133333-76.8 76.8V234.666667l-21.333333-21.333334c-29.866667-29.866667-78.933333-29.866667-108.8 0L213.333333 266.666667c-29.866667 29.866667-29.866667 78.933333 0 108.8l21.333334 21.333333H204.8c-42.666667 0-76.8 34.133333-76.8 76.8v76.8c0 42.666667 34.133333 76.8 76.8 76.8H234.666667l-21.333334 21.333333c-29.866667 29.866667-29.866667 78.933333 0 108.8l53.333334 53.333334c29.866667 29.866667 78.933333 29.866667 108.8 0l21.333333-21.333334v29.866667c0 42.666667 34.133333 76.8 76.8 76.8h76.8c42.666667 0 76.8-34.133333 76.8-76.8V789.333333l21.333333 21.333334c29.866667 29.866667 78.933333 29.866667 108.8 0l53.333334-53.333334c29.866667-29.866667 29.866667-78.933333 0-108.8l-21.333334-21.333333h29.866667c42.666667 0 76.8-34.133333 76.8-76.8v-76.8c0-42.666667-34.133333-76.8-76.8-76.8z m0 153.6h-59.733333c-6.4 40.533333-21.333333 76.8-44.8 108.8l42.666666 42.666667-53.333333 53.333333-42.666667-42.666667c-32 23.466667-68.266667 38.4-108.8 44.8v59.733334h-76.8v-59.733334c-40.533333-6.4-76.8-21.333333-108.8-44.8l-42.666666 42.666667-53.333334-53.333333 42.666667-42.666667c-23.466667-32-38.4-68.266667-44.8-108.8h-64v-76.8h59.733333c6.4-40.533333 21.333333-76.8 44.8-108.8l-42.666666-42.666667 53.333333-53.333333 42.666667 42.666667c32-23.466667 68.266667-38.4 108.8-44.8V204.8h76.8v59.733333c40.533333 6.4 76.8 21.333333 108.8 44.8l42.666666-42.666666 53.333334 53.333333-42.666667 42.666667c23.466667 32 38.4 68.266667 44.8 108.8h59.733333v78.933333z" fill="#e6e6e6" p-id="15398"></path></svg>